<svg width="25" height="24" viewBox="0 0 25 24" fill="none" xmlns="http://www.w3.org/2000/svg">
<g clip-path="url(#clip0_1_12127)">
<path d="M22.1562 12.525H21.5562V13.125V14.5312C21.5562 14.7177 21.4052 14.8687 21.2188 14.8687C21.0323 14.8687 20.8813 14.7177 20.8813 14.5312V13.125V12.525H20.2812H18.875C18.6885 12.525 18.5375 12.374 18.5375 12.1875C18.5375 12.001 18.6885 11.85 18.875 11.85H20.2812H20.8813V11.25V9.84375C20.8813 9.6573 21.0323 9.50625 21.2188 9.50625C21.4052 9.50625 21.5562 9.6573 21.5562 9.84375V11.25V11.85H22.1562H23.5625C23.749 11.85 23.9 12.001 23.9 12.1875C23.9 12.374 23.749 12.525 23.5625 12.525H22.1562ZM21.9475 6.23144L21.9474 6.23153C21.7914 6.33366 21.5823 6.29003 21.4802 6.13412C19.4892 3.09231 16.1312 1.275 12.5 1.275C6.58574 1.275 1.775 6.08574 1.775 12C1.775 17.9143 6.58574 22.725 12.5 22.725C16.0559 22.725 19.3741 20.9665 21.3758 18.0224C21.4806 17.8684 21.6904 17.8283 21.8447 17.9331C21.9988 18.0379 22.0388 18.2478 21.934 18.402C19.806 21.532 16.2794 23.4 12.5 23.4C9.45387 23.4 6.59293 22.215 4.43897 20.061C2.28502 17.9071 1.1 15.0461 1.1 12C1.1 8.95387 2.28502 6.09293 4.43897 3.93897C6.59293 1.78502 9.45387 0.6 12.5 0.6C16.3604 0.6 19.9276 2.52981 22.045 5.76429L22.045 5.76432C22.1471 5.92025 22.1034 6.12946 21.9475 6.23144ZM7.63712 8.23033L7.63737 8.23046C7.75054 8.28796 7.82188 8.4042 7.82188 8.53125V15.5156C7.82188 15.7021 7.67083 15.8531 7.48438 15.8531C7.29792 15.8531 7.14687 15.7021 7.14687 15.5156V10.3759V9.19486L6.19307 9.89127L5.94903 10.0695C5.7984 10.1793 5.58718 10.1463 5.47732 9.99576C5.36754 9.84535 5.40042 9.63418 5.55111 9.5242L7.28541 8.25863C7.38817 8.18365 7.5241 8.17283 7.63712 8.23033ZM11.5079 12.1172L11.8639 11.7431L11.547 11.3353C11.2861 10.9997 11.1313 10.5805 11.1313 10.125C11.1313 9.03474 12.0191 8.14688 13.1094 8.14688C14.1996 8.14688 15.0875 9.03474 15.0875 10.125C15.0875 10.5805 14.9327 10.9997 14.6718 11.3353L14.3548 11.7431L14.7109 12.1172C15.0901 12.5157 15.3219 13.0515 15.3219 13.6406C15.3219 14.8602 14.3289 15.8531 13.1094 15.8531C11.8898 15.8531 10.8969 14.8602 10.8969 13.6406C10.8969 13.0515 11.1286 12.5157 11.5079 12.1172ZM14.6469 13.6406C14.6469 12.7923 13.9577 12.1031 13.1094 12.1031C12.2611 12.1031 11.5719 12.7923 11.5719 13.6406C11.5719 14.4889 12.2611 15.1781 13.1094 15.1781C13.9577 15.1781 14.6469 14.4889 14.6469 13.6406ZM11.8062 10.125C11.8062 10.844 12.3904 11.4281 13.1094 11.4281C13.8284 11.4281 14.4125 10.844 14.4125 10.125C14.4125 9.40599 13.8284 8.82187 13.1094 8.82187C12.3904 8.82187 11.8062 9.40599 11.8062 10.125Z" fill="#786F8B" stroke="#786F8B" stroke-width="1.2"/>
</g>
<defs>
<clipPath id="clip0_1_12127">
<rect width="24" height="24" fill="white" transform="translate(0.5)"/>
</clipPath>
</defs>
</svg>
